<?xml version="1.0" encoding="UTF-8" standalone="no"?>
<svg    xml:space="preserve"   style="enable-background:new 0 0 512 512;"
   width="100%" height="100%"

   viewBox="0 0 512 512"
   y="0px"
   x="0px"
   id="Capa_1"
   version="1.1">
<g
   id="g6">
	<path
   id="path2"
   d="M 479.18,119.897 H 32.821 C 14.69,119.897 0,105.207 0,87.077 0,68.947 14.69,54.256 32.821,54.256 H 479.18 c 18.13,0 32.82,14.69 32.82,32.821 0,18.131 -14.69,32.82 -32.82,32.82 z"
   style="fill:#000000;fill-opacity:1" />
	
</g>

<path
   id="path10"
   d="M 479.8122,457.11769 H 33.453198 c -18.131,0 -32.8209996,-14.691 -32.8209996,-32.821 0,-18.13 14.6899996,-32.821 32.8209996,-32.821 H 479.8122 c 18.13,0 32.82,14.69 32.82,32.821 0,18.13 -14.69,32.821 -32.82,32.821 z"
   style="fill:#000000;fill-opacity:1" />
<g
   id="g12">
</g>
<g
   id="g14">
</g>
<g
   id="g16">
</g>
<g
   id="g18">
</g>
<g
   id="g20">
</g>
<g
   id="g22">
</g>
<g
   id="g24">
</g>
<g
   id="g26">
</g>
<g
   id="g28">
</g>
<g
   id="g30">
</g>
<g
   id="g32">
</g>
<g
   id="g34">
</g>
<g
   id="g36">
</g>
<g
   id="g38">
</g>
<g
   id="g40">
</g>
<path
   style="fill:#000000;fill-opacity:1"
   d="M 480.81683,289.93196 H 34.457823 c -18.131001,0 -32.8210002,-14.691 -32.8210002,-32.821 0,-18.13 14.6899992,-32.821 32.8210002,-32.821 H 480.81683 c 18.13,0 32.82,14.69 32.82,32.821 0,18.13 -14.69,32.821 -32.82,32.821 z"
   id="path10-2" /></svg>
