<?xml version="1.0" encoding="UTF-8" standalone="no"?>
<svg
   
   xml:space="preserve"
   style="enable-background:new 0 0 30.239 30.239;"
   viewBox="0 0 30.239 30.239"
   height="100%"
   width="100%"
   y="0px"
   x="0px"
   id="Capa_1"
   version="1.1">
<g
   id="g4">
	<path
   id="path2"
   d="M 26.791159,20.167953 C 31.393748,15.544566 31.376824,8.0365851 26.753437,3.4339955 22.129052,-1.1675919 14.622071,-1.1506695 10.018479,3.4717198 5.9207501,7.5889674 5.4951736,13.987943 8.7125574,18.590702 8.2537773,18.688736 7.8162788,18.911723 7.4600845,19.269527 l -6.70283915,6.733127 c -0.97479064,0.9812 -0.97122447,2.563196 0.007969,3.534991 0.9802021,0.975793 2.5621981,0.972227 3.534991,-0.008 l 6.704839,-6.733131 c 0.353199,-0.355797 0.575209,-0.795299 0.671174,-1.254516 4.618222,3.198597 11.014214,2.744178 15.114941,-1.374076 z M 12.172415,18.079901 C 8.72066,14.643674 8.7080251,9.038688 12.144255,5.5879332 c 3.436232,-3.4497548 9.040218,-3.4623874 12.491968,-0.02816 3.450753,3.43523 3.463388,9.0402155 0.02816,12.4919685 -3.436228,3.451755 -9.040213,3.464387 -12.491968,0.02816 z" />
</g>
<g
   id="g6">
</g>
<g
   id="g8">
</g>
<g
   id="g10">
</g>
<g
   id="g12">
</g>
<g
   id="g14">
</g>
<g
   id="g16">
</g>
<g
   id="g18">
</g>
<g
   id="g20">
</g>
<g
   id="g22">
</g>
<g
   id="g24">
</g>
<g
   id="g26">
</g>
<g
   id="g28">
</g>
<g
   id="g30">
</g>
<g
   id="g32">
</g>
<g
   id="g34">
</g>
</svg>
